<svg width="512" height="512" viewBox="0 0 512 512" fill="none" xmlns="http://www.w3.org/2000/svg">
<path fill-rule="evenodd" clip-rule="evenodd" d="M512 256C512 397.385 397.385 512 256 512C114.615 512 0 397.385 0 256C0 114.615 114.615 0 256 0C397.385 0 512 114.615 512 256ZM205.152 271.52H184.512L184.64 276.352C184.64 283.536 183.12 288.208 180.08 290.32C177.04 292.448 170.416 293.488 160.192 293.488C147.6 293.488 140.176 291.584 137.856 287.776C135.552 283.968 134.4 271.696 134.4 250.944C134.4 235.536 135.68 226.272 138.256 223.152C140.832 220.048 148.48 218.48 161.248 218.48C170.768 218.48 176.88 219.472 179.552 221.456C182.224 223.44 183.552 228 183.552 235.088V237.856H204.192L204.112 235.408C204.112 221.632 201.52 212.448 196.336 207.808C191.136 203.184 180.832 200.864 165.376 200.864C144.144 200.864 130.208 203.68 123.536 209.312C116.864 214.944 113.536 226.704 113.536 244.592C113.536 274.992 115.984 293.648 120.912 300.656C125.84 307.632 138.992 311.12 160.384 311.12C179.232 311.12 191.392 308.912 196.896 304.496C202.4 300.08 205.152 290.32 205.152 275.248V271.52ZM298.512 233.408H278.416C278.32 232.416 278.256 231.664 278.256 231.184C277.792 225.088 276.448 221.264 274.224 219.696C272 218.144 266.752 217.36 258.512 217.36C248.768 217.36 242.4 218.256 239.424 220.048C236.416 221.84 234.944 225.648 234.944 231.408C234.944 238.24 236.16 242.336 238.592 243.712C241.024 245.104 249.072 246.144 262.72 246.896C278.88 247.792 289.312 250.096 294.064 253.808C298.784 257.504 301.152 265.216 301.152 276.896C301.152 291.296 298.368 300.592 292.816 304.8C287.248 309.024 275.008 311.12 256.064 311.12C239.024 311.12 227.712 309.056 222.128 304.928C216.544 300.8 213.76 292.448 213.76 279.84L213.68 275.872H233.68L233.76 278.192C233.76 285.76 235.088 290.384 237.728 292.08C240.384 293.76 247.6 294.608 259.408 294.608C268.592 294.608 274.464 293.632 277.04 291.664C279.568 289.712 280.848 285.184 280.848 278.096C280.848 272.848 279.872 269.36 277.936 267.648C276 265.936 271.84 264.88 265.44 264.528L254.08 263.808C236.944 262.816 225.968 260.416 221.216 256.672C216.448 252.912 214.064 244.848 214.064 232.448C214.064 219.792 216.944 211.376 222.688 207.168C228.416 202.944 239.888 200.848 257.088 200.848C273.408 200.848 284.368 202.768 290.032 206.64C295.712 210.496 298.528 218.048 298.528 229.264V233.408H298.512ZM375.76 233.408H395.856V229.264C395.856 218.048 393.024 210.496 387.36 206.64C381.696 202.768 370.72 200.848 354.4 200.848C337.216 200.848 325.728 202.944 320 207.168C314.256 211.376 311.392 219.792 311.392 232.448C311.392 244.848 313.76 252.912 318.528 256.672C323.296 260.416 334.256 262.816 351.392 263.808L362.752 264.528C369.152 264.88 373.328 265.936 375.248 267.648C377.184 269.36 378.16 272.848 378.16 278.096C378.16 285.184 376.88 289.712 374.352 291.664C371.792 293.632 365.92 294.608 356.72 294.608C344.912 294.608 337.696 293.76 335.056 292.08C332.4 290.384 331.088 285.76 331.088 278.192L331.008 275.872H310.992L311.072 279.84C311.072 292.448 313.856 300.8 319.44 304.928C325.04 309.056 336.352 311.12 353.376 311.12C372.336 311.12 384.576 309.024 390.144 304.8C395.712 300.592 398.48 291.296 398.48 276.896C398.48 265.216 396.128 257.52 391.392 253.808C386.656 250.096 376.208 247.792 360.064 246.896C346.4 246.144 338.352 245.104 335.936 243.712C333.488 242.336 332.272 238.24 332.272 231.408C332.272 225.648 333.776 221.84 336.752 220.048C339.728 218.256 346.112 217.36 355.84 217.36C364.08 217.36 369.328 218.144 371.552 219.696C373.776 221.264 375.136 225.088 375.6 231.184C375.6 231.664 375.648 232.416 375.76 233.408Z" fill="#F33052"/>
</svg>
